<svg id="Layer_1" data-name="Layer 1" xmlns="http://www.w3.org/2000/svg" viewBox="0 0 122.88 117.21"><title>bbq</title><path d="M116.52,117.21,96.71,71l-3.8,4.69,17,41.5h-5.35L89,78.32C73,89.53,50.79,89.86,34.61,78.84l-15,38.37H14.22l16-39.95c-2.34-2-3.26-3.78-5.08-6.28L5.4,117.21H0L21.92,65.79A52.86,52.86,0,0,1,14.8,48.36H9.29c-.88,0-1.61-1.14-1.61-2.56s.73-2.55,1.61-2.55h4.6c-.18-1.37-.33-2.76-.44-4.19-.09-1.21-.26-2.15.56-3.22h0a2.77,2.77,0,0,1,2-1.11h.21l89.51.19h1.08s.15,0,.17,0a2.66,2.66,0,0,1,2.54,1.83,6.67,6.67,0,0,1,0,2.09c-.09,1.51-.23,3-.42,4.42h4.47c.89,0,1.61,1.14,1.61,2.55s-.72,2.56-1.61,2.56h-5.36A51.55,51.55,0,0,1,100.93,66l21.95,51.17ZM36.8,30.41a2.31,2.31,0,0,1-3.27-3.27c1.71-1.71.9-3.22,0-5C31.77,19,29.79,15.25,33.17,9.4a2.31,2.31,0,1,1,4,2.32c-2.1,3.62-.76,6.12.4,8.29,1.81,3.37,3.36,6.28-.76,10.4ZM74.24,18.89A2.31,2.31,0,0,1,71,22.16c-4.13-4.13-2.57-7-.77-10.4,1.17-2.18,2.5-4.67.41-8.3a2.31,2.31,0,1,1,4-2.31C78,7,76,10.7,74.27,13.92c-.94,1.75-1.74,3.26,0,5Zm15.82,8.25a2.31,2.31,0,1,1-3.27,3.27c-4.12-4.12-2.56-7-.76-10.4,1.16-2.17,2.5-4.67.4-8.29a2.31,2.31,0,1,1,4-2.32c3.38,5.85,1.4,9.55-.33,12.78-.93,1.74-1.74,3.25,0,5ZM52.62,22.28A2.31,2.31,0,1,1,49.35,19c1.72-1.71.91-3.22,0-5C47.6,10.82,45.62,7.12,49,1.27a2.31,2.31,0,0,1,4,2.31c-2.09,3.63-.76,6.12.41,8.3,1.8,3.37,3.36,6.28-.77,10.4Z"/></svg>