<svg id="Layer_1" data-name="Layer 1" xmlns="http://www.w3.org/2000/svg" viewBox="0 0 83.81 122.88"><defs><style>.cls-1{fill-rule:evenodd;}</style></defs><title>pickle-jar</title><path class="cls-1" d="M66.7,71.27a15.65,15.65,0,0,1,3.4-6,4.83,4.83,0,0,1,5.81-.9.72.72,0,0,1-.6,1.32,3.5,3.5,0,0,0-4.21.64,14.06,14.06,0,0,0-2.94,5.22,11.85,11.85,0,0,1-1.46-.26Zm-39.27-62c0-.84,1-1.52,2.15-1.52s2.16.68,2.16,1.52V19.42H27.43V9.27ZM44.52,19.42V9.27c0-.84-1-1.52-2.15-1.52s-2.15.68-2.15,1.52V19.42Zm12.78,0V9.27c0-.84-1-1.52-2.15-1.52S53,8.43,53,9.27V19.42Zm12.78,0V9.27c0-.84-1-1.52-2.15-1.52s-2.15.68-2.15,1.52V19.42ZM14.65,9.27c0-.84,1-1.52,2.15-1.52S19,8.43,19,9.27V19.42h-4.3V9.27ZM6.39,49.7a43.48,43.48,0,0,1,.18-4.91C7.51,36.59,11.9,30.71,16.88,24c1.08-1.46,2.21-3,3.36-4.6H63.47c1,1.42,2.13,2.89,3.22,4.35,5,6.59,9.68,12.88,10.56,21.08,0,.41.08,2.84.1,5.12l0,2.26c-6.51-4.35-14.79-4.47-23.67-3a2.32,2.32,0,0,1,0,.53,2.79,2.79,0,0,1-5.53.53c-5.61,1.22-11.35,2.84-16.94,4.21a3.75,3.75,0,1,1-6.18,2.86,3.83,3.83,0,0,1,.32-1.52C18.5,57.26,12,58,6.42,56.59c0-2.3,0-4.59,0-6.89ZM51.27,60.08a5,5,0,1,1-5,5,5,5,0,0,1,5-5ZM42.39,84.15a4.5,4.5,0,1,1-4.5,4.49,4.49,4.49,0,0,1,4.5-4.49ZM30.45,75a3.11,3.11,0,1,1-3.1,3.11A3.11,3.11,0,0,1,30.45,75ZM16.06,77a8.9,8.9,0,0,0-1.42-3.69,2.77,2.77,0,0,0-3.22-1,.43.43,0,0,0-.28.52.42.42,0,0,0,.52.28,2,2,0,0,1,2.32.71A7.87,7.87,0,0,1,15.21,77a6.1,6.1,0,0,0,.85,0Zm3.72,5.43a.2.2,0,0,0,0,.08,11.32,11.32,0,0,1,.39,3.33c.06,1.31.13,2.85.33,4.46.71,5.6,3,11.78,11.86,11.11a6.73,6.73,0,0,1-4.69,2.38,10.73,10.73,0,0,1-6-1.68,20.86,20.86,0,0,1-5.62-5C12.85,93,10.83,87.74,11.75,83A3.35,3.35,0,0,0,14,81.91a3.69,3.69,0,0,0,1,1.42,4.12,4.12,0,0,0,2.34.9.42.42,0,0,0,.34-.71h0a1.66,1.66,0,0,1-.54-1,1.88,1.88,0,0,1,.14-.9,6.14,6.14,0,0,0,2.52.81Zm.09-.83a5.54,5.54,0,0,1-2.55-.92l-.05,0a.42.42,0,0,0-.57.17,3,3,0,0,0-.41,1.8,2,2,0,0,0,.16.6,2.64,2.64,0,0,1-.92-.51A3,3,0,0,1,14.6,81h0a.45.45,0,0,0-.12-.21.42.42,0,0,0-.59,0c-.9,1-1.63,1.35-2.21,1.29a1.61,1.61,0,0,1-1-.76,1.77,1.77,0,0,0,.59-.19,4.56,4.56,0,0,0,1.36-1.4c.66-.88,1.4-1.89,2.78-2,2.43-.12,2.67.36,3.2,1.42.16.31.33.67.59,1.09a3.28,3.28,0,0,0,1.32,1.24,3,3,0,0,1-.6,0Zm39-1.84-.09.14c-.55.67-1,2.84-1.51,5.65-.43,2.25-.94,4.91-1.7,7.64-2.64,9.51-8.17,19.64-23.33,16.24a11.71,11.71,0,0,0,7.52,5.3,18.82,18.82,0,0,0,10.83-1.39,36.44,36.44,0,0,0,11-7.22c6.62-6.22,11.46-14.88,11.06-23.36A6,6,0,0,1,69,80.33,6.36,6.36,0,0,1,67,82.54a7.1,7.1,0,0,1-4.28,1,.74.74,0,0,1-.69-.77.75.75,0,0,1,.29-.55h0a3,3,0,0,0,1.19-1.62,3.33,3.33,0,0,0,0-1.6,10.66,10.66,0,0,1-4.57.77Zm-3.37,20.57a.73.73,0,0,1,1.43.28c-.33,1.68-2,4.11-3.94,6.19s-4.12,3.7-5.84,4.14a.72.72,0,0,1-.88-.53.73.73,0,0,1,.52-.89c1.45-.36,3.42-1.91,5.14-3.72s3.29-4.07,3.57-5.47Zm3.41-22a9.72,9.72,0,0,0,4.66-1l.1,0a.73.73,0,0,1,.93.44A5.24,5.24,0,0,1,64.89,81a3.72,3.72,0,0,1-.42,1,4.75,4.75,0,0,0,1.72-.66,5.43,5.43,0,0,0,2-2.64h0a.68.68,0,0,1,.25-.33.74.74,0,0,1,1,.17c1.32,1.87,2.48,2.75,3.5,2.79a2.72,2.72,0,0,0,2-1.05,2.8,2.8,0,0,1-1-.48A8.07,8.07,0,0,1,72,77c-.91-1.69-2-3.62-4.31-4.08-4.19-.82-4.73,0-5.91,1.66-.35.5-.74,1.07-1.29,1.74a5.68,5.68,0,0,1-2.6,1.81,6,6,0,0,0,1,.15ZM9.69,0H74.86a6.79,6.79,0,0,1,6.77,6.77v5.65a6.79,6.79,0,0,1-6.77,6.77H70.49c.63.86,1.26,1.69,1.88,2.52C78.29,29.59,83.91,37.08,83.77,48q0,31.38,0,62.77h0c.19,4-.6,7.17-2.72,9.33s-5.43,3.14-10.25,2.63H11.07c-3.65.11-6.32-.8-8.14-2.58s-2.7-4.27-2.84-7.39a1.55,1.55,0,0,1,0-.22V50.32C-.68,38.29,4.36,31.1,11.18,22c.68-.91,1.37-1.83,2-2.76H9.69a6.79,6.79,0,0,1-6.77-6.77V6.77A6.79,6.79,0,0,1,9.69,0Z"/></svg>