<?xml version="1.0" encoding="utf-8"?><svg version="1.1" id="Layer_1" xmlns="http://www.w3.org/2000/svg" xmlns:xlink="http://www.w3.org/1999/xlink" x="0px" y="0px" viewBox="0 0 122.88 49.36" style="enable-background:new 0 0 122.88 49.36" xml:space="preserve"><style type="text/css">.st0{fill-rule:evenodd;clip-rule:evenodd;}</style><g><path class="st0" d="M3.94,25.23l35.33,0.21c4.19,0.01,7.98-0.77,11.69-1.98C47.17,15.43,41.94,9.9,36.31,6.83 C32.22,4.59,27.91,3.65,23.8,4c-4.06,0.34-7.94,1.96-11.21,4.82C8.56,12.37,5.42,17.84,3.94,25.23L3.94,25.23z M15.45,17.39 c1.2,0,2.18,0.97,2.18,2.18c0,1.2-0.97,2.18-2.18,2.18c-1.2,0-2.18-0.97-2.18-2.18C13.27,18.36,14.24,17.39,15.45,17.39 L15.45,17.39z M24.67,17.5c1.2,0,2.18,0.97,2.18,2.18c0,1.2-0.97,2.18-2.18,2.18c-1.2,0-2.18-0.97-2.18-2.18 C22.49,18.47,23.46,17.5,24.67,17.5L24.67,17.5z M19.83,10.86c1.2,0,2.18,0.97,2.18,2.18c0,1.2-0.97,2.18-2.18,2.18 c-1.2,0-2.18-0.97-2.18-2.18C17.66,11.83,18.63,10.86,19.83,10.86L19.83,10.86z M54.64,22.1c13.28-5.3,26.95-14.82,56.18-12.61 c12.52,0.95,14.47,11.43,9.58,14.76c-3.67,2.5-7.1-0.27-10.69-1.45c-2.98-0.98-6.15-1.59-9.49-1.86 c-11.49-0.91-20.42,1.65-30.08,4.95c-13.75,4.71-17.93,7.49-19.69,10.66C38.93,57.25,0.14,52.37,0.04,25.47 c-0.05-0.25-0.06-0.51,0-0.78c1.64-8.4,5.27-14.69,9.98-18.82c3.92-3.44,8.58-5.38,13.46-5.79c4.85-0.41,9.91,0.68,14.7,3.3 C44.59,6.88,50.49,13.11,54.64,22.1L54.64,22.1z"/></g></svg>