<svg id="Layer_1" data-name="Layer 1" xmlns="http://www.w3.org/2000/svg" viewBox="0 0 122.88 109.47"><defs><style>.cls-1{fill-rule:evenodd;}</style></defs><title>spices</title><path class="cls-1" d="M1.56,82.61a1.86,1.86,0,1,1,.6-3.67,15.74,15.74,0,0,1,8.26,3.59c.18.16.34.33.51.5.12-.37.25-.74.39-1.1h90.13c.11.29.21.59.3.88l.29-.28a15.77,15.77,0,0,1,8.27-3.59,1.86,1.86,0,0,1,.59,3.67,12.17,12.17,0,0,0-6.33,2.65A4.84,4.84,0,0,0,103,89.43a1.61,1.61,0,0,1,0,.58c.67,8.77,1.26,19.46-11.36,19.46H22.7C9.46,109.47,8.52,99.53,9.53,90a1.68,1.68,0,0,1,0-.59A4.84,4.84,0,0,0,7.9,85.27a12.09,12.09,0,0,0-6.34-2.66ZM13.45,57.77l7.05-12.2c-3.92-3.23-5.13-7.16-4.61-10.79a12.18,12.18,0,0,1,1.91-5,12.79,12.79,0,0,1,3.7-3.7,10.41,10.41,0,0,1,10.67-.76L39,13.55A20.44,20.44,0,0,1,56.23,3.24L13.29,77.62a20,20,0,0,1,.16-19.85ZM89.66,10.05,76.17,35.61l11.31,11.3,2.82-.79-.64-36.07Zm10.8,33.31a1.24,1.24,0,0,1-.82.46L88.05,49.45l-4,4-.63.65c-1.57,1.64-2.54,2.66-5.54,2.14a14.59,14.59,0,0,1-7.27-4.2A12.9,12.9,0,0,1,66.69,45c-.32-2.8.67-3.75,2.2-5.22l.56-.55,4.1-4.1.12-.16L88.75,6.56l0-.07a15.76,15.76,0,0,1,3.74-4.61A7.82,7.82,0,0,1,97.14.06c1.55,0,3.09,0,4.52,0,.7,0,1.37,0,2.3,0,.75,0,1.25,0,1.62-.06a3.34,3.34,0,0,1,1.57.11A5.06,5.06,0,0,1,109,1.64c.07.06-.18-.18.52.52L119,11.61l1.14,1.12c1.93,1.82,2,1.91,2.46,5.6a23.15,23.15,0,0,1-.29,9,11.9,11.9,0,0,1-6,7.29l-.07,0-15.82,8.72Zm-2.23-1.62L97.54,2.53h-.32a5.34,5.34,0,0,0-3.13,1.28,11,11,0,0,0-2,2.16.81.81,0,0,1,0,.16l.69,38.61,5.45-3ZM100,2.52l.67,37.85,14.37-7.94,0,0a9.6,9.6,0,0,0,4.79-5.81,20.86,20.86,0,0,0,.21-8c-.33-2.79-.4-2.85-1.69-4.08-.37-.36-.81-.77-1.2-1.16l-9.45-9.44c-.31-.3-.15-.14-.52-.52a8.22,8.22,0,0,0-.94-.91,4.91,4.91,0,0,0-.55,0c-.42,0-1,.07-1.8.07l-2.34,0-1.59,0ZM51.72,69.76a1.85,1.85,0,1,0,0-2.62,1.86,1.86,0,0,0,0,2.62Zm3.72-16.3a1.85,1.85,0,1,0,0-2.61,1.85,1.85,0,0,0,0,2.61Zm-9,5.43a1.85,1.85,0,1,0,0-2.61,1.83,1.83,0,0,0,0,2.61Zm7.22,1.76a1.85,1.85,0,1,0,0-2.62,1.86,1.86,0,0,0,0,2.62Zm7.23-1.76a1.85,1.85,0,1,0,0-2.61,1.83,1.83,0,0,0,0,2.61Zm1.72-5.39a1.85,1.85,0,1,0,0-2.61,1.85,1.85,0,0,0,0,2.61Zm5.34,5.43a1.85,1.85,0,1,0,0-2.61,1.86,1.86,0,0,0,0,2.61Zm-3.59,7.19a1.85,1.85,0,1,0,0-2.62,1.85,1.85,0,0,0,0,2.62ZM59,73.22a1.85,1.85,0,1,0,0-2.61,1.85,1.85,0,0,0,0,2.61ZM57.24,66a1.85,1.85,0,1,0,0-2.61,1.83,1.83,0,0,0,0,2.61ZM22.39,42.29l7.91-13.7a6.79,6.79,0,0,0-6.76.64,9.15,9.15,0,0,0-2.63,2.63,8.27,8.27,0,0,0-1.34,3.45,7.81,7.81,0,0,0,2.82,7ZM55.49,91c.4-6,7-4.38,4.47,1.16,5.43-2.66,7.29,3.87,1.22,4.45,5,3.36.31,8.25-3.23,3.29-.41,6-7,4.38-4.47-1.16-5.42,2.66-7.3-3.87-1.23-4.45-5-3.36-.3-8.25,3.24-3.29Z"/></svg>